<svg width="36" height="36" viewBox="0 0 36 36" fill="none" xmlns="http://www.w3.org/2000/svg">
 <circle cx="18.3574" cy="17.5292" r="17.5292" fill="#FFC145"/>
<g mask="url(#mask0_426_368)">
<path d="M29.1901 37.1468V33.566C29.1901 31.6666 28.6194 29.845 27.6037 28.5019C26.5879 27.1588 25.2102 26.4043 23.7737 26.4043H12.9409C11.5044 26.4043 10.1267 27.1588 9.1109 28.5019C8.09513 29.845 7.52448 31.6666 7.52448 33.566V37.1468" fill="#197BBD"/>
<path d="M18.3559 20.9871C21.3473 20.9871 23.7723 18.5621 23.7723 15.5707C23.7723 12.5793 21.3473 10.1543 18.3559 10.1543C15.3645 10.1543 12.9395 12.5793 12.9395 15.5707C12.9395 18.5621 15.3645 20.9871 18.3559 20.9871Z" fill="white"/>
</g>
</svg>
