<svg width="24" height="25" viewBox="0 0 24 25" fill="none" xmlns="http://www.w3.org/2000/svg">
<path d="M18 8.5293C18 6.938 17.3679 5.41187 16.2426 4.28666C15.1174 3.16144 13.5913 2.5293 12 2.5293C10.4087 2.5293 8.88258 3.16144 7.75736 4.28666C6.63214 5.41187 6 6.938 6 8.5293C6 15.5293 3 17.5293 3 17.5293H21C21 17.5293 18 15.5293 18 8.5293Z" fill="#E3E3E3"/>
<path d="M13.73 21.5293C13.5542 21.8324 13.3018 22.0839 12.9982 22.2588C12.6946 22.4337 12.3504 22.5258 12 22.5258C11.6496 22.5258 11.3054 22.4337 11.0018 22.2588C10.6982 22.0839 10.4458 21.8324 10.27 21.5293" stroke="#E3E3E3" stroke-width="2" stroke-linecap="round" stroke-linejoin="round"/>
<!-- <circle cx="17.7015" cy="5.22782" r="3.97196" fill="#BB4430"/> -->
</svg>
