<svg width="23" height="24" viewBox="0 0 23 24" fill="none" xmlns="http://www.w3.org/2000/svg">
<g clip-path="url(#clip0_426_148)">
<path d="M5.3706 9.93073C6.22812 7.33229 8.67003 5.4661 11.5624 5.4661C13.1172 5.4661 14.5215 6.01781 15.625 6.9206L18.8349 3.71068C16.8788 2.0054 14.3711 0.952148 11.5624 0.952148C7.21317 0.952148 3.46864 3.43326 1.66846 7.06691L5.3706 9.93073Z" fill="#EA4335"/>
<path d="M15.278 17.5151C14.2759 18.1621 13.0026 18.5066 11.5625 18.5066C8.68122 18.5066 6.24694 16.6547 5.38064 14.0718L1.66626 16.892C3.4642 20.532 7.20864 23.0206 11.5625 23.0206C14.2593 23.0206 16.8362 22.0619 18.7661 20.2616L15.278 17.5151Z" fill="#34A853"/>
<path d="M18.7659 20.2614C20.7842 18.3787 22.0948 15.5756 22.0948 11.9862C22.0948 11.3342 21.9945 10.632 21.844 9.97998H11.5623V14.2432H17.4806C17.1885 15.6768 16.4047 16.7871 15.2777 17.5148L18.7659 20.2614Z" fill="#4A90E2"/>
<path d="M5.38056 14.0716C5.16111 13.4173 5.04228 12.7161 5.04228 11.9862C5.04228 11.2674 5.15753 10.5765 5.37064 9.93071L1.6685 7.06689C0.929766 8.54768 0.52832 10.2165 0.52832 11.9862C0.52832 13.7513 0.937301 15.4162 1.66618 16.8918L5.38056 14.0716Z" fill="#FBBC05"/>
</g>
<defs>
<clipPath id="clip0_426_148">
<rect width="22.0682" height="22.0682" fill="white" transform="translate(0.52832 0.952148)"/>
</clipPath>
</defs>
</svg>
